<?xml version="1.0" encoding="utf-8"?>
<svg xmlns="http://www.w3.org/2000/svg" viewBox="0 -103.905 850.615 677.743" xmlns:bx="https://boxy-svg.com" width="850.615px" height="677.743px"><defs><bx:export><bx:file format="svg"/></bx:export></defs><rect fill="#ffffff" width="849.466" height="674.077" x="1.169" y="-100.95" style="fill: light-dark(#ffffff, var(--ge-dark-color, #121212)); stroke-width: 1;"/><g transform="matrix(1, 0, 0, 1, -0.135124, -98.333429)"><g data-cell-id="0"><g data-cell-id="1"><g data-cell-id="pgkE_nUgFbnCDrmknM6Q-13"><g transform="translate(0.5,0.5)"><path d="M 0 670 L 0 80 L 850 80 L 850 670 L 840 670 L 840 90 L 10 90 L 10 670 Z" fill="#000000" stroke="#000000" stroke-miterlimit="10" pointer-events="all" style="fill: light-dark(rgb(0, 0, 0), rgb(255, 255, 255)); stroke: light-dark(rgb(0, 0, 0), rgb(255, 255, 255));"/></g></g><g data-cell-id="pgkE_nUgFbnCDrmknM6Q-14"><g transform="translate(0.5,0.5)"><rect x="10" y="660" width="830" height="10" fill="#000000" stroke="#000000" pointer-events="all" style="fill: light-dark(rgb(0, 0, 0), rgb(255, 255, 255)); stroke: light-dark(rgb(0, 0, 0), rgb(255, 255, 255));"/></g></g><g data-cell-id="pgkE_nUgFbnCDrmknM6Q-15"><g transform="translate(0.5,0.5)"><rect x="345" y="585" width="160" height="5" fill="#ffffff" stroke="#000000" transform="rotate(180,425,627.5)" pointer-events="all" style="fill: light-dark(#ffffff, var(--ge-dark-color, #121212)); stroke: light-dark(rgb(0, 0, 0), rgb(255, 255, 255));"/><path d="M 425 585 L 425 590 M 425 590 C 425 634.18 389.18 670 345 670 L 345 590 M 425 590 C 425 634.18 460.82 670 505 670 L 505 590" fill="none" stroke="#000000" stroke-miterlimit="10" transform="rotate(180,425,627.5)" pointer-events="all" style="stroke: light-dark(rgb(0, 0, 0), rgb(255, 255, 255));"/></g></g><g data-cell-id="pgkE_nUgFbnCDrmknM6Q-64"><g transform="translate(0.5,0.5)"><rect x="150" y="80" width="160" height="5" fill="#ffffff" stroke="#000000" transform="rotate(-180,230,82.5)" pointer-events="all" style="fill: light-dark(#ffffff, var(--ge-dark-color, #121212)); stroke: light-dark(rgb(0, 0, 0), rgb(255, 255, 255));"/><path d="M 230 80 L 230 85 C 231.38 62.93 223.57 41.27 208.41 25.17 C 193.26 9.07 172.11 -0.04 150 0 L 150 80 M 230 85 C 230 129.18 265.82 165 310 165 L 310 85" fill="none" stroke="#000000" stroke-miterlimit="10" transform="rotate(-180,230,82.5)" pointer-events="all" style="stroke: light-dark(rgb(0, 0, 0), rgb(255, 255, 255));"/></g></g><g data-cell-id="table-1" class="table"><g transform="translate(0.5,0.5)"/><g data-cell-id="pgkE_nUgFbnCDrmknM6Q-26"><g transform="translate(0.5,0.5)"><path d="M 176.54 287.62 L 179.45 311.46 C 180 314.97 178.48 318.47 175.57 320.4 C 165.61 322 155.46 322 145.5 320.4 C 142.59 318.47 141.06 314.97 141.62 311.46 L 144.53 287.62 C 145.09 284.98 147.86 282.95 151.32 282.65 L 169.75 282.65 C 173.2 282.95 175.98 284.98 176.54 287.62 Z M 150.52 282.65 L 145.54 276.36 M 156.06 282.65 L 154.4 275.46 M 162.71 282.65 L 164.92 275.46 M 168.24 282.65 L 173.78 276.36 M 175.44 276.69 C 165.19 275.06 154.69 275.06 144.43 276.69 L 140 272.72 C 153.12 270.01 166.76 270.01 179.87 272.72 Z" fill="#ffffff" stroke="#000000" stroke-linejoin="round" stroke-miterlimit="10" pointer-events="all" style="fill: light-dark(#ffffff, var(--ge-dark-color, #121212)); stroke: light-dark(rgb(0, 0, 0), rgb(255, 255, 255));"/></g></g><g data-cell-id="pgkE_nUgFbnCDrmknM6Q-27"><g transform="translate(0.5,0.5)"><path d="M 176.54 375.62 L 179.45 399.46 C 180 402.97 178.48 406.47 175.57 408.4 C 165.61 410 155.46 410 145.5 408.4 C 142.59 406.47 141.06 402.97 141.62 399.46 L 144.53 375.62 C 145.09 372.98 147.86 370.95 151.32 370.65 L 169.75 370.65 C 173.2 370.95 175.98 372.98 176.54 375.62 Z M 150.52 370.65 L 145.54 364.36 M 156.06 370.65 L 154.4 363.46 M 162.71 370.65 L 164.92 363.46 M 168.24 370.65 L 173.78 364.36 M 175.44 364.69 C 165.19 363.06 154.69 363.06 144.43 364.69 L 140 360.72 C 153.12 358.01 166.76 358.01 179.87 360.72 Z" fill="#ffffff" stroke="#000000" stroke-linejoin="round" stroke-miterlimit="10" transform="rotate(180,160,384)" pointer-events="all" style="fill: light-dark(#ffffff, var(--ge-dark-color, #121212)); stroke: light-dark(rgb(0, 0, 0), rgb(255, 255, 255));"/></g></g><g data-cell-id="pgkE_nUgFbnCDrmknM6Q-28"><g transform="translate(0.5,0.5)"><path d="M 132.54 331.62 L 135.45 355.46 C 136 358.97 134.48 362.47 131.57 364.4 C 121.61 366 111.46 366 101.5 364.4 C 98.59 362.47 97.06 358.97 97.62 355.46 L 100.53 331.62 C 101.09 328.98 103.86 326.95 107.32 326.65 L 125.75 326.65 C 129.2 326.95 131.98 328.98 132.54 331.62 Z M 106.52 326.65 L 101.54 320.36 M 112.06 326.65 L 110.4 319.46 M 118.71 326.65 L 120.92 319.46 M 124.24 326.65 L 129.78 320.36 M 131.44 320.69 C 121.19 319.06 110.69 319.06 100.43 320.69 L 96 316.72 C 109.12 314.01 122.76 314.01 135.87 316.72 Z" fill="#ffffff" stroke="#000000" stroke-linejoin="round" stroke-miterlimit="10" transform="rotate(270,116,340)" pointer-events="all" style="fill: light-dark(#ffffff, var(--ge-dark-color, #121212)); stroke: light-dark(rgb(0, 0, 0), rgb(255, 255, 255));"/></g></g><g data-cell-id="pgkE_nUgFbnCDrmknM6Q-29"><g transform="translate(0.5,0.5)"><path d="M 220.54 331.62 L 223.45 355.46 C 224 358.97 222.48 362.47 219.57 364.4 C 209.61 366 199.46 366 189.5 364.4 C 186.59 362.47 185.06 358.97 185.62 355.46 L 188.53 331.62 C 189.09 328.98 191.86 326.95 195.32 326.65 L 213.75 326.65 C 217.2 326.95 219.98 328.98 220.54 331.62 Z M 194.52 326.65 L 189.54 320.36 M 200.06 326.65 L 198.4 319.46 M 206.71 326.65 L 208.92 319.46 M 212.24 326.65 L 217.78 320.36 M 219.44 320.69 C 209.19 319.06 198.69 319.06 188.43 320.69 L 184 316.72 C 197.12 314.01 210.76 314.01 223.87 316.72 Z" fill="#ffffff" stroke="#000000" stroke-linejoin="round" stroke-miterlimit="10" transform="rotate(90,204,340)" pointer-events="all" style="fill: light-dark(#ffffff, var(--ge-dark-color, #121212)); stroke: light-dark(rgb(0, 0, 0), rgb(255, 255, 255));"/></g></g><g data-cell-id="pgkE_nUgFbnCDrmknM6Q-30"><g transform="translate(0.5,0.5)"><rect x="110" y="290" width="100" height="100" fill="#ffffff" stroke="#000000" pointer-events="all" style="fill: light-dark(#ffffff, var(--ge-dark-color, #121212)); stroke: light-dark(rgb(0, 0, 0), rgb(255, 255, 255));"/></g></g></g><g data-cell-id="table-2" class="table"><g transform="translate(0.5,0.5)"/><g data-cell-id="pgkE_nUgFbnCDrmknM6Q-16"><g transform="translate(0.5,0.5)"><path d="M 176.54 487.62 L 179.45 511.46 C 180 514.97 178.48 518.47 175.57 520.4 C 165.61 522 155.46 522 145.5 520.4 C 142.59 518.47 141.06 514.97 141.62 511.46 L 144.53 487.62 C 145.09 484.98 147.86 482.95 151.32 482.65 L 169.75 482.65 C 173.2 482.95 175.98 484.98 176.54 487.62 Z M 150.52 482.65 L 145.54 476.36 M 156.06 482.65 L 154.4 475.46 M 162.71 482.65 L 164.92 475.46 M 168.24 482.65 L 173.78 476.36 M 175.44 476.69 C 165.19 475.06 154.69 475.06 144.43 476.69 L 140 472.72 C 153.12 470.01 166.76 470.01 179.87 472.72 Z" fill="#ffffff" stroke="#000000" stroke-linejoin="round" stroke-miterlimit="10" pointer-events="all" style="fill: light-dark(#ffffff, var(--ge-dark-color, #121212)); stroke: light-dark(rgb(0, 0, 0), rgb(255, 255, 255));"/></g></g><g data-cell-id="pgkE_nUgFbnCDrmknM6Q-17"><g transform="translate(0.5,0.5)"><path d="M 176.54 575.62 L 179.45 599.46 C 180 602.97 178.48 606.47 175.57 608.4 C 165.61 610 155.46 610 145.5 608.4 C 142.59 606.47 141.06 602.97 141.62 599.46 L 144.53 575.62 C 145.09 572.98 147.86 570.95 151.32 570.65 L 169.75 570.65 C 173.2 570.95 175.98 572.98 176.54 575.62 Z M 150.52 570.65 L 145.54 564.36 M 156.06 570.65 L 154.4 563.46 M 162.71 570.65 L 164.92 563.46 M 168.24 570.65 L 173.78 564.36 M 175.44 564.69 C 165.19 563.06 154.69 563.06 144.43 564.69 L 140 560.72 C 153.12 558.01 166.76 558.01 179.87 560.72 Z" fill="#ffffff" stroke="#000000" stroke-linejoin="round" stroke-miterlimit="10" transform="rotate(180,160,584)" pointer-events="all" style="fill: light-dark(#ffffff, var(--ge-dark-color, #121212)); stroke: light-dark(rgb(0, 0, 0), rgb(255, 255, 255));"/></g></g><g data-cell-id="pgkE_nUgFbnCDrmknM6Q-18"><g transform="translate(0.5,0.5)"><path d="M 132.54 531.62 L 135.45 555.46 C 136 558.97 134.48 562.47 131.57 564.4 C 121.61 566 111.46 566 101.5 564.4 C 98.59 562.47 97.06 558.97 97.62 555.46 L 100.53 531.62 C 101.09 528.98 103.86 526.95 107.32 526.65 L 125.75 526.65 C 129.2 526.95 131.98 528.98 132.54 531.62 Z M 106.52 526.65 L 101.54 520.36 M 112.06 526.65 L 110.4 519.46 M 118.71 526.65 L 120.92 519.46 M 124.24 526.65 L 129.78 520.36 M 131.44 520.69 C 121.19 519.06 110.69 519.06 100.43 520.69 L 96 516.72 C 109.12 514.01 122.76 514.01 135.87 516.72 Z" fill="#ffffff" stroke="#000000" stroke-linejoin="round" stroke-miterlimit="10" transform="rotate(270,116,540)" pointer-events="all" style="fill: light-dark(#ffffff, var(--ge-dark-color, #121212)); stroke: light-dark(rgb(0, 0, 0), rgb(255, 255, 255));"/></g></g><g data-cell-id="pgkE_nUgFbnCDrmknM6Q-19"><g transform="translate(0.5,0.5)"><path d="M 220.54 531.62 L 223.45 555.46 C 224 558.97 222.48 562.47 219.57 564.4 C 209.61 566 199.46 566 189.5 564.4 C 186.59 562.47 185.06 558.97 185.62 555.46 L 188.53 531.62 C 189.09 528.98 191.86 526.95 195.32 526.65 L 213.75 526.65 C 217.2 526.95 219.98 528.98 220.54 531.62 Z M 194.52 526.65 L 189.54 520.36 M 200.06 526.65 L 198.4 519.46 M 206.71 526.65 L 208.92 519.46 M 212.24 526.65 L 217.78 520.36 M 219.44 520.69 C 209.19 519.06 198.69 519.06 188.43 520.69 L 184 516.72 C 197.12 514.01 210.76 514.01 223.87 516.72 Z" fill="#ffffff" stroke="#000000" stroke-linejoin="round" stroke-miterlimit="10" transform="rotate(90,204,540)" pointer-events="all" style="fill: light-dark(#ffffff, var(--ge-dark-color, #121212)); stroke: light-dark(rgb(0, 0, 0), rgb(255, 255, 255));"/></g></g><g data-cell-id="pgkE_nUgFbnCDrmknM6Q-20"><g transform="translate(0.5,0.5)"><rect x="110" y="490" width="100" height="100" fill="#ffffff" stroke="#000000" pointer-events="all" style="fill: light-dark(#ffffff, var(--ge-dark-color, #121212)); stroke: light-dark(rgb(0, 0, 0), rgb(255, 255, 255));"/></g></g></g><g data-cell-id="table-3" class="table"><g transform="translate(0.5,0.5)"/><g data-cell-id="pgkE_nUgFbnCDrmknM6Q-57"><g transform="translate(0.5,0.5)"><path d="M 406.54 287.62 L 409.45 311.46 C 410 314.97 408.48 318.47 405.57 320.4 C 395.61 322 385.46 322 375.5 320.4 C 372.59 318.47 371.06 314.97 371.62 311.46 L 374.53 287.62 C 375.09 284.98 377.86 282.95 381.32 282.65 L 399.75 282.65 C 403.2 282.95 405.98 284.98 406.54 287.62 Z M 380.52 282.65 L 375.54 276.36 M 386.06 282.65 L 384.4 275.46 M 392.71 282.65 L 394.92 275.46 M 398.24 282.65 L 403.78 276.36 M 405.44 276.69 C 395.19 275.06 384.69 275.06 374.43 276.69 L 370 272.72 C 383.12 270.01 396.76 270.01 409.87 272.72 Z" fill="#ffffff" stroke="#000000" stroke-linejoin="round" stroke-miterlimit="10" pointer-events="all" style="fill: light-dark(#ffffff, var(--ge-dark-color, #121212)); stroke: light-dark(rgb(0, 0, 0), rgb(255, 255, 255));"/></g></g><g data-cell-id="pgkE_nUgFbnCDrmknM6Q-58"><g transform="translate(0.5,0.5)"><path d="M 406.54 375.62 L 409.45 399.46 C 410 402.97 408.48 406.47 405.57 408.4 C 395.61 410 385.46 410 375.5 408.4 C 372.59 406.47 371.06 402.97 371.62 399.46 L 374.53 375.62 C 375.09 372.98 377.86 370.95 381.32 370.65 L 399.75 370.65 C 403.2 370.95 405.98 372.98 406.54 375.62 Z M 380.52 370.65 L 375.54 364.36 M 386.06 370.65 L 384.4 363.46 M 392.71 370.65 L 394.92 363.46 M 398.24 370.65 L 403.78 364.36 M 405.44 364.69 C 395.19 363.06 384.69 363.06 374.43 364.69 L 370 360.72 C 383.12 358.01 396.76 358.01 409.87 360.72 Z" fill="#ffffff" stroke="#000000" stroke-linejoin="round" stroke-miterlimit="10" transform="rotate(180,390,384)" pointer-events="all" style="fill: light-dark(#ffffff, var(--ge-dark-color, #121212)); stroke: light-dark(rgb(0, 0, 0), rgb(255, 255, 255));"/></g></g><g data-cell-id="pgkE_nUgFbnCDrmknM6Q-59"><g transform="translate(0.5,0.5)"><path d="M 362.54 331.62 L 365.45 355.46 C 366 358.97 364.48 362.47 361.57 364.4 C 351.61 366 341.46 366 331.5 364.4 C 328.59 362.47 327.06 358.97 327.62 355.46 L 330.53 331.62 C 331.09 328.98 333.86 326.95 337.32 326.65 L 355.75 326.65 C 359.2 326.95 361.98 328.98 362.54 331.62 Z M 336.52 326.65 L 331.54 320.36 M 342.06 326.65 L 340.4 319.46 M 348.71 326.65 L 350.92 319.46 M 354.24 326.65 L 359.78 320.36 M 361.44 320.69 C 351.19 319.06 340.69 319.06 330.43 320.69 L 326 316.72 C 339.12 314.01 352.76 314.01 365.87 316.72 Z" fill="#ffffff" stroke="#000000" stroke-linejoin="round" stroke-miterlimit="10" transform="rotate(270,346,340)" pointer-events="all" style="fill: light-dark(#ffffff, var(--ge-dark-color, #121212)); stroke: light-dark(rgb(0, 0, 0), rgb(255, 255, 255));"/></g></g><g data-cell-id="pgkE_nUgFbnCDrmknM6Q-60"><g transform="translate(0.5,0.5)"><path d="M 510.54 331.62 L 513.45 355.46 C 514 358.97 512.48 362.47 509.57 364.4 C 499.61 366 489.46 366 479.5 364.4 C 476.59 362.47 475.06 358.97 475.62 355.46 L 478.53 331.62 C 479.09 328.98 481.86 326.95 485.32 326.65 L 503.75 326.65 C 507.2 326.95 509.98 328.98 510.54 331.62 Z M 484.52 326.65 L 479.54 320.36 M 490.06 326.65 L 488.4 319.46 M 496.71 326.65 L 498.92 319.46 M 502.24 326.65 L 507.78 320.36 M 509.44 320.69 C 499.19 319.06 488.69 319.06 478.43 320.69 L 474 316.72 C 487.12 314.01 500.76 314.01 513.87 316.72 Z" fill="#ffffff" stroke="#000000" stroke-linejoin="round" stroke-miterlimit="10" transform="rotate(90,494,340)" pointer-events="all" style="fill: light-dark(#ffffff, var(--ge-dark-color, #121212)); stroke: light-dark(rgb(0, 0, 0), rgb(255, 255, 255));"/></g></g><g data-cell-id="pgkE_nUgFbnCDrmknM6Q-61"><g transform="translate(0.5,0.5)"><path d="M 466.54 287.62 L 469.45 311.46 C 470 314.97 468.48 318.47 465.57 320.4 C 455.61 322 445.46 322 435.5 320.4 C 432.59 318.47 431.06 314.97 431.62 311.46 L 434.53 287.62 C 435.09 284.98 437.86 282.95 441.32 282.65 L 459.75 282.65 C 463.2 282.95 465.98 284.98 466.54 287.62 Z M 440.52 282.65 L 435.54 276.36 M 446.06 282.65 L 444.4 275.46 M 452.71 282.65 L 454.92 275.46 M 458.24 282.65 L 463.78 276.36 M 465.44 276.69 C 455.19 275.06 444.69 275.06 434.43 276.69 L 430 272.72 C 443.12 270.01 456.76 270.01 469.87 272.72 Z" fill="#ffffff" stroke="#000000" stroke-linejoin="round" stroke-miterlimit="10" pointer-events="all" style="fill: light-dark(#ffffff, var(--ge-dark-color, #121212)); stroke: light-dark(rgb(0, 0, 0), rgb(255, 255, 255));"/></g></g><g data-cell-id="pgkE_nUgFbnCDrmknM6Q-62"><g transform="translate(0.5,0.5)"><path d="M 466.54 375.62 L 469.45 399.46 C 470 402.97 468.48 406.47 465.57 408.4 C 455.61 410 445.46 410 435.5 408.4 C 432.59 406.47 431.06 402.97 431.62 399.46 L 434.53 375.62 C 435.09 372.98 437.86 370.95 441.32 370.65 L 459.75 370.65 C 463.2 370.95 465.98 372.98 466.54 375.62 Z M 440.52 370.65 L 435.54 364.36 M 446.06 370.65 L 444.4 363.46 M 452.71 370.65 L 454.92 363.46 M 458.24 370.65 L 463.78 364.36 M 465.44 364.69 C 455.19 363.06 444.69 363.06 434.43 364.69 L 430 360.72 C 443.12 358.01 456.76 358.01 469.87 360.72 Z" fill="#ffffff" stroke="#000000" stroke-linejoin="round" stroke-miterlimit="10" transform="rotate(180,450,384)" pointer-events="all" style="fill: light-dark(#ffffff, var(--ge-dark-color, #121212)); stroke: light-dark(rgb(0, 0, 0), rgb(255, 255, 255));"/></g></g><g data-cell-id="pgkE_nUgFbnCDrmknM6Q-63"><g transform="translate(0.5,0.5)"><rect x="340" y="290" width="160" height="100" fill="#ffffff" stroke="#000000" pointer-events="all" style="fill: light-dark(#ffffff, var(--ge-dark-color, #121212)); stroke: light-dark(rgb(0, 0, 0), rgb(255, 255, 255));"/></g></g></g><g data-cell-id="table-4" class="table"><g transform="translate(0.5,0.5)"/><g data-cell-id="pgkE_nUgFbnCDrmknM6Q-31"><g transform="translate(0.5,0.5)"><path d="M 696.54 287.62 L 699.45 311.46 C 700 314.97 698.48 318.47 695.57 320.4 C 685.61 322 675.46 322 665.5 320.4 C 662.59 318.47 661.06 314.97 661.62 311.46 L 664.53 287.62 C 665.09 284.98 667.86 282.95 671.32 282.65 L 689.75 282.65 C 693.2 282.95 695.98 284.98 696.54 287.62 Z M 670.52 282.65 L 665.54 276.36 M 676.06 282.65 L 674.4 275.46 M 682.71 282.65 L 684.92 275.46 M 688.24 282.65 L 693.78 276.36 M 695.44 276.69 C 685.19 275.06 674.69 275.06 664.43 276.69 L 660 272.72 C 673.12 270.01 686.76 270.01 699.87 272.72 Z" fill="#ffffff" stroke="#000000" stroke-linejoin="round" stroke-miterlimit="10" pointer-events="all" style="fill: light-dark(#ffffff, var(--ge-dark-color, #121212)); stroke: light-dark(rgb(0, 0, 0), rgb(255, 255, 255));"/></g></g><g data-cell-id="pgkE_nUgFbnCDrmknM6Q-32"><g transform="translate(0.5,0.5)"><path d="M 696.54 375.62 L 699.45 399.46 C 700 402.97 698.48 406.47 695.57 408.4 C 685.61 410 675.46 410 665.5 408.4 C 662.59 406.47 661.06 402.97 661.62 399.46 L 664.53 375.62 C 665.09 372.98 667.86 370.95 671.32 370.65 L 689.75 370.65 C 693.2 370.95 695.98 372.98 696.54 375.62 Z M 670.52 370.65 L 665.54 364.36 M 676.06 370.65 L 674.4 363.46 M 682.71 370.65 L 684.92 363.46 M 688.24 370.65 L 693.78 364.36 M 695.44 364.69 C 685.19 363.06 674.69 363.06 664.43 364.69 L 660 360.72 C 673.12 358.01 686.76 358.01 699.87 360.72 Z" fill="#ffffff" stroke="#000000" stroke-linejoin="round" stroke-miterlimit="10" transform="rotate(180,680,384)" pointer-events="all" style="fill: light-dark(#ffffff, var(--ge-dark-color, #121212)); stroke: light-dark(rgb(0, 0, 0), rgb(255, 255, 255));"/></g></g><g data-cell-id="pgkE_nUgFbnCDrmknM6Q-33"><g transform="translate(0.5,0.5)"><path d="M 652.54 331.62 L 655.45 355.46 C 656 358.97 654.48 362.47 651.57 364.4 C 641.61 366 631.46 366 621.5 364.4 C 618.59 362.47 617.06 358.97 617.62 355.46 L 620.53 331.62 C 621.09 328.98 623.86 326.95 627.32 326.65 L 645.75 326.65 C 649.2 326.95 651.98 328.98 652.54 331.62 Z M 626.52 326.65 L 621.54 320.36 M 632.06 326.65 L 630.4 319.46 M 638.71 326.65 L 640.92 319.46 M 644.24 326.65 L 649.78 320.36 M 651.44 320.69 C 641.19 319.06 630.69 319.06 620.43 320.69 L 616 316.72 C 629.12 314.01 642.76 314.01 655.87 316.72 Z" fill="#ffffff" stroke="#000000" stroke-linejoin="round" stroke-miterlimit="10" transform="rotate(270,636,340)" pointer-events="all" style="fill: light-dark(#ffffff, var(--ge-dark-color, #121212)); stroke: light-dark(rgb(0, 0, 0), rgb(255, 255, 255));"/></g></g><g data-cell-id="pgkE_nUgFbnCDrmknM6Q-34"><g transform="translate(0.5,0.5)"><path d="M 740.54 331.62 L 743.45 355.46 C 744 358.97 742.48 362.47 739.57 364.4 C 729.61 366 719.46 366 709.5 364.4 C 706.59 362.47 705.06 358.97 705.62 355.46 L 708.53 331.62 C 709.09 328.98 711.86 326.95 715.32 326.65 L 733.75 326.65 C 737.2 326.95 739.98 328.98 740.54 331.62 Z M 714.52 326.65 L 709.54 320.36 M 720.06 326.65 L 718.4 319.46 M 726.71 326.65 L 728.92 319.46 M 732.24 326.65 L 737.78 320.36 M 739.44 320.69 C 729.19 319.06 718.69 319.06 708.43 320.69 L 704 316.72 C 717.12 314.01 730.76 314.01 743.87 316.72 Z" fill="#ffffff" stroke="#000000" stroke-linejoin="round" stroke-miterlimit="10" transform="rotate(90,724,340)" pointer-events="all" style="fill: light-dark(#ffffff, var(--ge-dark-color, #121212)); stroke: light-dark(rgb(0, 0, 0), rgb(255, 255, 255));"/></g></g><g data-cell-id="pgkE_nUgFbnCDrmknM6Q-35"><g transform="translate(0.5,0.5)"><rect x="630" y="290" width="100" height="100" fill="#ffffff" stroke="#000000" pointer-events="all" style="fill: light-dark(#ffffff, var(--ge-dark-color, #121212)); stroke: light-dark(rgb(0, 0, 0), rgb(255, 255, 255));"/></g></g></g><g data-cell-id="table-5" class="table"><g transform="translate(0.5,0.5)"/><g data-cell-id="pgkE_nUgFbnCDrmknM6Q-21"><g transform="translate(0.5,0.5)"><path d="M 696.54 487.62 L 699.45 511.46 C 700 514.97 698.48 518.47 695.57 520.4 C 685.61 522 675.46 522 665.5 520.4 C 662.59 518.47 661.06 514.97 661.62 511.46 L 664.53 487.62 C 665.09 484.98 667.86 482.95 671.32 482.65 L 689.75 482.65 C 693.2 482.95 695.98 484.98 696.54 487.62 Z M 670.52 482.65 L 665.54 476.36 M 676.06 482.65 L 674.4 475.46 M 682.71 482.65 L 684.92 475.46 M 688.24 482.65 L 693.78 476.36 M 695.44 476.69 C 685.19 475.06 674.69 475.06 664.43 476.69 L 660 472.72 C 673.12 470.01 686.76 470.01 699.87 472.72 Z" fill="#ffffff" stroke="#000000" stroke-linejoin="round" stroke-miterlimit="10" pointer-events="all" style="fill: light-dark(#ffffff, var(--ge-dark-color, #121212)); stroke: light-dark(rgb(0, 0, 0), rgb(255, 255, 255));"/></g></g><g data-cell-id="pgkE_nUgFbnCDrmknM6Q-22"><g transform="translate(0.5,0.5)"><path d="M 696.54 575.62 L 699.45 599.46 C 700 602.97 698.48 606.47 695.57 608.4 C 685.61 610 675.46 610 665.5 608.4 C 662.59 606.47 661.06 602.97 661.62 599.46 L 664.53 575.62 C 665.09 572.98 667.86 570.95 671.32 570.65 L 689.75 570.65 C 693.2 570.95 695.98 572.98 696.54 575.62 Z M 670.52 570.65 L 665.54 564.36 M 676.06 570.65 L 674.4 563.46 M 682.71 570.65 L 684.92 563.46 M 688.24 570.65 L 693.78 564.36 M 695.44 564.69 C 685.19 563.06 674.69 563.06 664.43 564.69 L 660 560.72 C 673.12 558.01 686.76 558.01 699.87 560.72 Z" fill="#ffffff" stroke="#000000" stroke-linejoin="round" stroke-miterlimit="10" transform="rotate(180,680,584)" pointer-events="all" style="fill: light-dark(#ffffff, var(--ge-dark-color, #121212)); stroke: light-dark(rgb(0, 0, 0), rgb(255, 255, 255));"/></g></g><g data-cell-id="pgkE_nUgFbnCDrmknM6Q-23"><g transform="translate(0.5,0.5)"><path d="M 652.54 531.62 L 655.45 555.46 C 656 558.97 654.48 562.47 651.57 564.4 C 641.61 566 631.46 566 621.5 564.4 C 618.59 562.47 617.06 558.97 617.62 555.46 L 620.53 531.62 C 621.09 528.98 623.86 526.95 627.32 526.65 L 645.75 526.65 C 649.2 526.95 651.98 528.98 652.54 531.62 Z M 626.52 526.65 L 621.54 520.36 M 632.06 526.65 L 630.4 519.46 M 638.71 526.65 L 640.92 519.46 M 644.24 526.65 L 649.78 520.36 M 651.44 520.69 C 641.19 519.06 630.69 519.06 620.43 520.69 L 616 516.72 C 629.12 514.01 642.76 514.01 655.87 516.72 Z" fill="#ffffff" stroke="#000000" stroke-linejoin="round" stroke-miterlimit="10" transform="rotate(270,636,540)" pointer-events="all" style="fill: light-dark(#ffffff, var(--ge-dark-color, #121212)); stroke: light-dark(rgb(0, 0, 0), rgb(255, 255, 255));"/></g></g><g data-cell-id="pgkE_nUgFbnCDrmknM6Q-24"><g transform="translate(0.5,0.5)"><path d="M 740.54 531.62 L 743.45 555.46 C 744 558.97 742.48 562.47 739.57 564.4 C 729.61 566 719.46 566 709.5 564.4 C 706.59 562.47 705.06 558.97 705.62 555.46 L 708.53 531.62 C 709.09 528.98 711.86 526.95 715.32 526.65 L 733.75 526.65 C 737.2 526.95 739.98 528.98 740.54 531.62 Z M 714.52 526.65 L 709.54 520.36 M 720.06 526.65 L 718.4 519.46 M 726.71 526.65 L 728.92 519.46 M 732.24 526.65 L 737.78 520.36 M 739.44 520.69 C 729.19 519.06 718.69 519.06 708.43 520.69 L 704 516.72 C 717.12 514.01 730.76 514.01 743.87 516.72 Z" fill="#ffffff" stroke="#000000" stroke-linejoin="round" stroke-miterlimit="10" transform="rotate(90,724,540)" pointer-events="all" style="fill: light-dark(#ffffff, var(--ge-dark-color, #121212)); stroke: light-dark(rgb(0, 0, 0), rgb(255, 255, 255));"/></g></g><g data-cell-id="pgkE_nUgFbnCDrmknM6Q-25"><g transform="translate(0.5,0.5)"><rect x="630" y="490" width="100" height="100" fill="#ffffff" stroke="#000000" pointer-events="all" style="fill: light-dark(#ffffff, var(--ge-dark-color, #121212)); stroke: light-dark(rgb(0, 0, 0), rgb(255, 255, 255));"/></g></g></g></g></g></g></svg>